<svg xmlns="http://www.w3.org/2000/svg" viewBox="0 0 1600 900" width="1600" height="900" role="img" aria-label="Placeholder gambar santri">
  <defs>
    <linearGradient id="bg" x1="0" y1="0" x2="1" y2="1">
      <stop offset="0" stop-color="#f3f4f6"/>
      <stop offset="1" stop-color="#e5e7eb"/>
    </linearGradient>
    <linearGradient id="accent" x1="0" y1="0" x2="0" y2="1">
      <stop offset="0" stop-color="#10b981" stop-opacity="0.22"/>
      <stop offset="1" stop-color="#10b981" stop-opacity="0"/>
    </linearGradient>
  </defs>

  <rect x="0" y="0" width="1600" height="900" rx="48" fill="url(#bg)"/>
  <rect x="0" y="0" width="1600" height="900" rx="48" fill="url(#accent)"/>

  <!-- subtle floor -->
  <ellipse cx="800" cy="820" rx="360" ry="70" fill="#111827" opacity="0.08"/>

  <!-- simple silhouette -->
  <g fill="#111827" opacity="0.22">
    <circle cx="800" cy="430" r="110"/>
    <path d="M640 820c0-170 80-290 160-290s160 120 160 290H640z"/>
    <path d="M650 610c-90 40-140 110-160 200h70c18-70 55-115 120-145l-30-55z"/>
    <path d="M950 610c90 40 140 110 160 200h-70c-18-70-55-115-120-145l30-55z"/>
  </g>
</svg>
